<?xml version="1.0" encoding="UTF-8" standalone="no"?>
<svg
   xmlns:dc="http://purl.org/dc/elements/1.1/"
   xmlns:cc="http://creativecommons.org/ns#"
   xmlns:rdf="http://www.w3.org/1999/02/22-rdf-syntax-ns#"
   xmlns:svg="http://www.w3.org/2000/svg"
   xmlns="http://www.w3.org/2000/svg"
   xmlns:xlink="http://www.w3.org/1999/xlink"
   xmlns:sodipodi="http://sodipodi.sourceforge.net/DTD/sodipodi-0.dtd"
   xmlns:inkscape="http://www.inkscape.org/namespaces/inkscape"
   sodipodi:docname="folder-gdrive.svg"
   inkscape:version="1.0 (4035a4fb49, 2020-05-01)"
   id="svg2"
   height="64"
   version="1.1"
   width="64">
  <sodipodi:namedview
     inkscape:document-rotation="0"
     inkscape:current-layer="layer1"
     inkscape:window-maximized="1"
     inkscape:window-y="0"
     inkscape:window-x="0"
     inkscape:cy="27.282407"
     inkscape:cx="29.470134"
     inkscape:zoom="8.9342207"
     showgrid="false"
     id="namedview45"
     inkscape:window-height="1028"
     inkscape:window-width="1920"
     inkscape:pageshadow="2"
     inkscape:pageopacity="0"
     guidetolerance="10"
     gridtolerance="10"
     objecttolerance="10"
     borderopacity="1"
     bordercolor="#666666"
     pagecolor="#ffffff" />
  <defs
     id="defs5455">
    <linearGradient
       id="linearGradient896"
       inkscape:collect="always">
      <stop
         id="stop892"
         offset="0"
         style="stop-color:#00b8b8;stop-opacity:1" />
      <stop
         id="stop894"
         offset="1"
         style="stop-color:#00b8b8;stop-opacity:1" />
    </linearGradient>
    <linearGradient
       id="linearGradient888"
       inkscape:collect="always">
      <stop
         id="stop884"
         offset="0"
         style="stop-color:#00b8b8;stop-opacity:1" />
      <stop
         id="stop886"
         offset="1"
         style="stop-color:#006666;stop-opacity:1" />
    </linearGradient>
    <linearGradient
       gradientUnits="userSpaceOnUse"
       y2="520.79811"
       x2="445.57143"
       y1="520.79811"
       x1="387.57143"
       id="linearGradient890"
       xlink:href="#linearGradient888"
       inkscape:collect="always" />
    <linearGradient
       gradientUnits="userSpaceOnUse"
       y2="503.798"
       x2="444.57143"
       y1="503.798"
       x1="388.57143"
       id="linearGradient898"
       xlink:href="#linearGradient896"
       inkscape:collect="always" />
  </defs>
  <metadata
     id="metadata5458">
    <rdf:RDF>
      <cc:Work
         rdf:about="">
        <dc:format>image/svg+xml</dc:format>
        <dc:type
           rdf:resource="http://purl.org/dc/dcmitype/StillImage" />
      </cc:Work>
    </rdf:RDF>
  </metadata>
  <g
     transform="matrix(1 0 0 1 -384.57143 -483.798)"
     id="layer1"
     inkscape:groupmode="layer"
     inkscape:label="Capa 1">
    <path
       d="m 388.57143,489.79812 0,5 0,22 c 0,0.55373 0.446,1 1,1 l 54,0 c 0.55399,0 1,-0.44627 1,-1 l 0,-21.99023 c 0,-0.003 -0.002,-0.006 -0.002,-0.01 l 0.002,0 0,-1 -28,0 -4,-4 -24,0 z"
       id="rect4180"
       style="fill:url(#linearGradient898);fill-opacity:1"
       inkscape:connector-curvature="0" />
    <path
       d="m 410.57143,499.79812 -4,4 -19,0 0,1 0.002,0 c -5e-5,0.004 -0.002,0.008 -0.002,0.0117 l 0,35.98828 0,1 1,0 56,0 1,0 0,-1 0,-35.98828 0,-0.0117 0,-5 z"
       id="rect4113"
       style="fill:url(#linearGradient890);fill-opacity:1"
       inkscape:connector-curvature="0" />
    <path
       d="m 387.57144,503.79812 0,1 19.99999,0 3,-5 -4,4 z"
       id="path4224"
       style="fill:#ffffff;fill-opacity:0.235294;fill-rule:evenodd"
       inkscape:connector-curvature="0" />
    <path
       d="m 388.57143,502.79812 0,1 18,0 4,-4 -6,3 z"
       id="path4228"
       style="fill-opacity:0.235294;fill-rule:evenodd"
       inkscape:connector-curvature="0" />
    <path
       d="m 387.57143,540.7981 0,1 1,0 56,0 1,0 0,-1 -1,0 -56,0 -1,0 z"
       id="path4151-2"
       style="fill-opacity:0.235294"
       inkscape:connector-curvature="0" />
    <path
       d="m 412.57143,489.798 3,5 2,0 27,0 0,-1 -27,0 -1,0 z"
       id="path4196"
       style="fill:#ffffff;fill-opacity:0.235294;fill-rule:evenodd"
       inkscape:connector-curvature="0" />
    <rect
       id="rect4035"
       style="fill:#4d4d4d"
       height="14.668059"
       y="492.91455"
       x="352.95316"
       width="0" />
    <rect
       id="rect4035-8"
       style="fill:#4d4d4d"
       height="14.668059"
       y="515.48517"
       x="359.91373"
       width="0" />
    <rect
       id="rect4035-0"
       style="fill:#4d4d4d"
       height="14.668059"
       y="514.42444"
       x="361.72702"
       width="0" />
    <rect
       id="rect4035-06"
       style="fill:#4d4d4d"
       height="14.668059"
       y="489.1333"
       x="335.79691"
       width="0" />
    <rect
       id="rect4035-8-7"
       style="fill:#4d4d4d"
       height="14.668059"
       y="511.70392"
       x="342.75748"
       width="0" />
    <rect
       id="rect4035-0-42"
       style="fill:#4d4d4d"
       height="14.668059"
       y="510.64319"
       x="344.57077"
       width="0" />
    <rect
       id="rect4035-3"
       style="fill:#4d4d4d"
       height="14.668059"
       y="489.1333"
       x="335.79691"
       width="0" />
    <rect
       id="rect4035-8-9"
       style="fill:#4d4d4d"
       height="14.668059"
       y="511.70392"
       x="342.75748"
       width="0" />
    <rect
       id="rect4035-0-4"
       style="fill:#4d4d4d"
       height="14.668059"
       y="510.64319"
       x="344.57077"
       width="0" />
    <rect
       id="rect4035-2"
       style="fill:#4d4d4d"
       height="14.668059"
       y="489.1333"
       x="335.79691"
       width="0" />
    <rect
       id="rect4035-8-99"
       style="fill:#4d4d4d"
       height="14.668059"
       y="511.70392"
       x="342.75748"
       width="0" />
    <rect
       id="rect4035-0-43"
       style="fill:#4d4d4d"
       height="14.668059"
       y="510.64319"
       x="344.57077"
       width="0" />
    <rect
       id="rect4035-3-9"
       style="fill:#4d4d4d"
       height="14.668059"
       y="489.1333"
       x="335.79691"
       width="0" />
    <rect
       id="rect4035-8-9-9"
       style="fill:#4d4d4d"
       height="14.668059"
       y="511.70392"
       x="342.75748"
       width="0" />
    <rect
       id="rect4035-0-4-4"
       style="fill:#4d4d4d"
       height="14.668059"
       y="510.64319"
       x="344.57077"
       width="0" />
    <rect
       id="rect4035-5"
       style="fill:#4d4d4d"
       height="10.999983"
       y="510.42273"
       x="406.06702"
       width="0" />
    <rect
       id="rect4035-7"
       style="fill:#4d4d4d"
       height="10.999983"
       y="512.94183"
       x="401.51501"
       width="0" />
    <rect
       id="rect4035-9"
       style="fill:#4d4d4d"
       height="10.999983"
       y="500.52325"
       x="397.00723"
       width="0" />
    <rect
       id="rect4035-96"
       style="fill:#4d4d4d"
       height="10.999983"
       y="512.76068"
       x="397.85126"
       width="0" />
    <rect
       id="rect4035-7-0"
       style="fill:#4d4d4d"
       height="10.999983"
       y="515.27979"
       x="393.29926"
       width="0" />
    <rect
       id="rect4035-9-6"
       style="fill:#4d4d4d"
       height="10.999983"
       y="502.86121"
       x="388.79147"
       width="0" />
    <rect
       id="rect4035-1"
       style="fill:#4d4d4d"
       height="10.999983"
       y="510.42273"
       x="406.06702"
       width="0" />
    <rect
       id="rect4035-7-2"
       style="fill:#4d4d4d"
       height="10.999983"
       y="512.94183"
       x="401.51501"
       width="0" />
    <rect
       id="rect4035-9-0"
       style="fill:#4d4d4d"
       height="10.999983"
       y="500.52325"
       x="397.00723"
       width="0" />
    <rect
       id="rect4035-96-9"
       style="fill:#4d4d4d"
       height="10.999983"
       y="512.76068"
       x="397.85126"
       width="0" />
    <rect
       id="rect4035-7-0-9"
       style="fill:#4d4d4d"
       height="10.999983"
       y="515.27979"
       x="393.29926"
       width="0" />
    <rect
       id="rect4035-9-6-9"
       style="fill:#4d4d4d"
       height="10.999983"
       y="502.86121"
       x="388.79147"
       width="0" />
    <path
       id="path6"
       class="ColorScheme-Text"
       d="m 413.62808,510.798 6.97048,12.85646 6.97287,0 -6.97287,-12.85646 -6.97048,0 z m -1.1172,1.14013 -6.93945,11.47217 3.24892,6.6626 6.75802,-12.1289 -3.06749,-6.00587 z m 0.95248,13.14454 -3.52582,5.71533 14.10567,0 3.52822,-5.71533 -14.10807,0 z"
       style="opacity:1;fill:#ffffff;fill-opacity:1;stroke:none"
       inkscape:connector-curvature="0" />
  </g>
</svg>
